<svg width="32" height="32" viewBox="0 0 32 32" fill="none" xmlns="http://www.w3.org/2000/svg">
<g id="apple 1" clip-path="url(#clip0_0_19)">
<g id="Group">
<g id="Group_2">
<path id="Vector" d="M21.9986 0C20.2926 0.117999 18.2986 1.20999 17.1366 2.63198C16.0766 3.92198 15.2046 5.83797 15.5446 7.69995C17.4086 7.75795 19.3346 6.63996 20.4506 5.19397C21.4946 3.84798 22.2846 1.94399 21.9986 0Z" fill="white"/>
</g>
</g>
<g id="Group_3">
<g id="Group_4">
<path id="Vector_2" d="M28.7406 10.7359C27.1026 8.68195 24.8006 7.48996 22.6266 7.48996C19.7566 7.48996 18.5427 8.86395 16.5487 8.86395C14.4927 8.86395 12.9307 7.49396 10.4487 7.49396C8.01071 7.49396 5.41473 8.98395 3.76874 11.5319C1.45475 15.1199 1.85075 21.8659 5.60073 27.6118C6.94272 29.6678 8.73471 31.9798 11.0787 31.9998C13.1647 32.0198 13.7527 30.6618 16.5787 30.6478C19.4046 30.6318 19.9406 32.0178 22.0226 31.9958C24.3686 31.9778 26.2586 29.4158 27.6006 27.3598C28.5626 25.8859 28.9206 25.1439 29.6666 23.4799C24.2406 21.4139 23.3706 13.6979 28.7406 10.7359Z" fill="white"/>
</g>
</g>
</g>
<defs>
<clipPath id="clip0_0_19">
<rect width="32" height="32" fill="white"/>
</clipPath>
</defs>
</svg>
