<svg width="32" height="32" viewBox="0 0 32 32" fill="none" xmlns="http://www.w3.org/2000/svg">
<g id="search 1" clip-path="url(#clip0_0_35)">
<path id="Vector" d="M7.09188 19.338L5.978 23.4963L1.90681 23.5824C0.690125 21.3257 0 18.7438 0 16C0 13.3468 0.64525 10.8448 1.789 8.64175H1.78988L5.41437 9.30625L7.00212 12.909C6.66981 13.8778 6.48869 14.9178 6.48869 16C6.48881 17.1745 6.70156 18.2998 7.09188 19.338Z" fill="#FBBB00"/>
<path id="Vector_2" d="M31.7205 13.011C31.9042 13.9789 32.0001 14.9784 32.0001 16C32.0001 17.1455 31.8796 18.2629 31.6502 19.3407C30.8713 23.0084 28.8361 26.211 26.0168 28.4774L26.0159 28.4765L21.4507 28.2435L20.8046 24.2101C22.6753 23.113 24.1373 21.396 24.9074 19.3407H16.3518V13.011H25.0322H31.7205Z" fill="#518EF8"/>
<path id="Vector_3" d="M26.0157 28.4765L26.0166 28.4774C23.2747 30.6813 19.7915 32 15.9999 32C9.90674 32 4.60918 28.5943 1.90674 23.5824L7.0918 19.3381C8.44299 22.9442 11.9217 25.5113 15.9999 25.5113C17.7529 25.5113 19.3951 25.0374 20.8043 24.2101L26.0157 28.4765Z" fill="#28B446"/>
<path id="Vector_4" d="M26.2128 3.6835L21.0295 7.927C19.5711 7.01538 17.8471 6.48875 16.0001 6.48875C11.8295 6.48875 8.28575 9.17356 7.00225 12.909L1.78994 8.64175H1.78906C4.45194 3.50769 9.81632 0 16.0001 0C19.8823 0 23.4418 1.38287 26.2128 3.6835Z" fill="#F14336"/>
</g>
<defs>
<clipPath id="clip0_0_35">
<rect width="32" height="32" fill="white"/>
</clipPath>
</defs>
</svg>
